<?xml version="1.0" encoding="utf-8" standalone="no"?>
<!DOCTYPE svg PUBLIC "-//W3C//DTD SVG 1.1//EN"
  "http://www.w3.org/Graphics/SVG/1.1/DTD/svg11.dtd">
<svg xmlns:xlink="http://www.w3.org/1999/xlink" width="1083.6pt" height="169.2pt" viewBox="0 0 1083.6 169.2" xmlns="http://www.w3.org/2000/svg" version="1.1">
 <metadata>
  <rdf:RDF xmlns:dc="http://purl.org/dc/elements/1.1/" xmlns:cc="http://creativecommons.org/ns#" xmlns:rdf="http://www.w3.org/1999/02/22-rdf-syntax-ns#">
   <cc:Work>
    <dc:type rdf:resource="http://purl.org/dc/dcmitype/StillImage"/>
    <dc:date>2026-08-18T14:13:17.444407</dc:date>
    <dc:format>image/svg+xml</dc:format>
    <dc:creator>
     <cc:Agent>
      <dc:title>Matplotlib v3.11.1, https://matplotlib.org/</dc:title>
     </cc:Agent>
    </dc:creator>
   </cc:Work>
  </rdf:RDF>
 </metadata>
 <defs>
  <style type="text/css">*{stroke-linejoin: round; stroke-linecap: butt}</style>
 </defs>
 <g id="figure_1">
  <g id="patch_1">
   <path d="M 0 169.2 
L 1083.6 169.2 
L 1083.6 0 
L 0 0 
z
" style="fill: #ffffff"/>
  </g>
  <g id="axes_1">
   <g id="patch_2">
    <path d="M 8.6688 162.075056 
L 150.082911 162.075056 
L 150.082911 20.660944 
L 8.6688 20.660944 
z
" style="fill: #ffffff"/>
   </g>
   <g id="patch_3">
    <path d="M 20.335464 29.499326 
L 138.416247 29.499326 
Q 141.244529 29.499326 141.244529 32.327608 
L 141.244529 150.408392 
Q 141.244529 153.236674 138.416247 153.236674 
L 20.335464 153.236674 
Q 17.507182 153.236674 17.507182 150.408392 
L 17.507182 32.327608 
Q 17.507182 29.499326 20.335464 29.499326 
z
" clip-path="url(#p17374f29e9)" style="fill: #f6f8fa"/>
   </g>
   <g id="patch_4">
    <path d="M 14.98193 26.974074 
L 143.769781 26.974074 
L 143.769781 29.499326 
L 14.98193 29.499326 
z
" clip-path="url(#p17374f29e9)" style="fill: #c2cdd5; stroke: #9aa7b1; stroke-width: 0.6"/>
   </g>
   <g id="patch_5">
    <path d="M 14.98193 153.236674 
L 143.769781 153.236674 
L 143.769781 155.761926 
L 14.98193 155.761926 
z
" clip-path="url(#p17374f29e9)" style="fill: #c2cdd5; stroke: #9aa7b1; stroke-width: 0.6"/>
   </g>
   <g id="patch_6">
    <path d="M 14.98193 26.974074 
L 17.507182 26.974074 
L 17.507182 155.761926 
L 14.98193 155.761926 
z
" clip-path="url(#p17374f29e9)" style="fill: #c2cdd5; stroke: #9aa7b1; stroke-width: 0.6"/>
   </g>
   <g id="patch_7">
    <path d="M 141.244529 26.974074 
L 143.769781 26.974074 
L 143.769781 155.761926 
L 141.244529 155.761926 
z
" clip-path="url(#p17374f29e9)" style="fill: #c2cdd5; stroke: #9aa7b1; stroke-width: 0.6"/>
   </g>
   <g id="patch_8">
    <path d="M 77.797573 26.974074 
L 80.954138 26.974074 
Q 82.532421 26.974074 82.532421 28.552357 
L 82.532421 41.178617 
Q 82.532421 42.756899 80.954138 42.756899 
L 77.797573 42.756899 
Q 76.219291 42.756899 76.219291 41.178617 
L 76.219291 28.552357 
Q 76.219291 26.974074 77.797573 26.974074 
z
" clip-path="url(#p17374f29e9)" style="fill: #c2cdd5; stroke: #9aa7b1; stroke-width: 0.6; stroke-linejoin: miter"/>
   </g>
   <g id="patch_9">
    <path d="M 77.797573 60.433663 
L 80.954138 60.433663 
Q 82.532421 60.433663 82.532421 62.011946 
L 82.532421 154.183643 
Q 82.532421 155.761926 80.954138 155.761926 
L 77.797573 155.761926 
Q 76.219291 155.761926 76.219291 154.183643 
L 76.219291 62.011946 
Q 76.219291 60.433663 77.797573 60.433663 
z
" clip-path="url(#p17374f29e9)" style="fill: #c2cdd5; stroke: #9aa7b1; stroke-width: 0.6; stroke-linejoin: miter"/>
   </g>
   <g id="matplotlib.axis_1"/>
   <g id="matplotlib.axis_2"/>
   <g id="patch_10">
    <path d="M 63.661324 79.22584 
C 66.340143 79.22584 68.909605 80.290146 70.803816 82.184357 
C 72.698026 84.078568 73.762332 86.64803 73.762332 89.326848 
C 73.762332 92.005667 72.698026 94.575129 70.803816 96.46934 
C 68.909605 98.36355 66.340143 99.427856 63.661324 99.427856 
C 60.982506 99.427856 58.413044 98.36355 56.518833 96.46934 
C 54.624622 94.575129 53.560316 92.005667 53.560316 89.326848 
C 53.560316 86.64803 54.624622 84.078568 56.518833 82.184357 
C 58.413044 80.290146 60.982506 79.22584 63.661324 79.22584 
z
" clip-path="url(#p17374f29e9)" style="fill: #3d6b7a; opacity: 0.16"/>
   </g>
   <g id="patch_11">
    <path d="M 63.661324 79.22584 
C 66.340143 79.22584 68.909605 80.290146 70.803816 82.184357 
C 72.698026 84.078568 73.762332 86.64803 73.762332 89.326848 
C 73.762332 92.005667 72.698026 94.575129 70.803816 96.46934 
C 68.909605 98.36355 66.340143 99.427856 63.661324 99.427856 
C 60.982506 99.427856 58.413044 98.36355 56.518833 96.46934 
C 54.624622 94.575129 53.560316 92.005667 53.560316 89.326848 
C 53.560316 86.64803 54.624622 84.078568 56.518833 82.184357 
C 58.413044 80.290146 60.982506 79.22584 63.661324 79.22584 
L 63.661324 79.22584 
z
" clip-path="url(#p17374f29e9)" style="fill: none; opacity: 0.55; stroke-dasharray: 5.2,3.9; stroke-dashoffset: 0; stroke: #3d6b7a; stroke-width: 1.3; stroke-linejoin: miter"/>
   </g>
   <g id="patch_12">
    <path d="M 63.661324 85.223314 
C 64.749594 85.223314 65.793438 85.655688 66.562961 86.425211 
C 67.332485 87.194734 67.764859 88.238578 67.764859 89.326848 
C 67.764859 90.415118 67.332485 91.458962 66.562961 92.228485 
C 65.793438 92.998009 64.749594 93.430383 63.661324 93.430383 
C 62.573054 93.430383 61.529211 92.998009 60.759687 92.228485 
C 59.990164 91.458962 59.55779 90.415118 59.55779 89.326848 
C 59.55779 88.238578 59.990164 87.194734 60.759687 86.425211 
C 61.529211 85.655688 62.573054 85.223314 63.661324 85.223314 
z
" clip-path="url(#p17374f29e9)" style="fill: #3d6b7a; opacity: 0.32"/>
   </g>
   <g id="patch_13">
    <path d="M 63.661324 85.223314 
C 64.749594 85.223314 65.793438 85.655688 66.562961 86.425211 
C 67.332485 87.194734 67.764859 88.238578 67.764859 89.326848 
C 67.764859 90.415118 67.332485 91.458962 66.562961 92.228485 
C 65.793438 92.998009 64.749594 93.430383 63.661324 93.430383 
C 62.573054 93.430383 61.529211 92.998009 60.759687 92.228485 
C 59.990164 91.458962 59.55779 90.415118 59.55779 89.326848 
C 59.55779 88.238578 59.990164 87.194734 60.759687 86.425211 
C 61.529211 85.655688 62.573054 85.223314 63.661324 85.223314 
L 63.661324 85.223314 
z
" clip-path="url(#p17374f29e9)" style="fill: none; opacity: 0.7; stroke: #3d6b7a; stroke-width: 1.8; stroke-linejoin: miter"/>
   </g>
   <g id="text_1">
    <text style="font-size: 11px; font-family: 'DejaVu Sans'; text-anchor: middle; fill: #2b2f33" x="79.375856" y="14.660944" transform="rotate(-0 79.375856 14.660944)">iteration 0</text>
   </g>
   <g id="line2d_1">
    <path d="M 114.270214 68.248724 
L 114.279105 68.063981 
L 114.287996 67.879238 
L 114.296888 67.694495 
L 114.305779 67.509752 
L 114.31467 67.325009 
L 114.323562 67.140266 
L 114.332453 66.955523 
L 114.341344 66.770779 
L 114.350235 66.586036 
L 114.359127 66.401293 
L 114.368018 66.21655 
L 114.376909 66.031807 
L 114.385801 65.847064 
L 114.394692 65.662321 
L 114.403583 65.477578 
L 114.412475 65.292835 
L 114.421366 65.108092 
L 114.430257 64.923349 
L 114.439149 64.738606 
L 114.44804 64.553863 
L 114.456931 64.36912 
L 114.465823 64.184377 
L 114.474714 63.999634 
L 114.483605 63.814891 
L 114.492497 63.630148 
" clip-path="url(#p17374f29e9)" style="fill: none; stroke: #c0491e; stroke-opacity: 0.98; stroke-width: 2.5; stroke-linecap: round"/>
   </g>
   <g id="line2d_2">
    <defs>
     <path id="m6d96589588" d="M 0 1.7 
C 0.450845 1.7 0.883286 1.520877 1.202082 1.202082 
C 1.520877 0.883286 1.7 0.450845 1.7 0 
C 1.7 -0.450845 1.520877 -0.883286 1.202082 -1.202082 
C 0.883286 -1.520877 0.450845 -1.7 0 -1.7 
C -0.450845 -1.7 -0.883286 -1.520877 -1.202082 -1.202082 
C -1.520877 -0.883286 -1.7 -0.450845 -1.7 0 
C -1.7 0.450845 -1.520877 0.883286 -1.202082 1.202082 
C -0.883286 1.520877 -0.450845 1.7 0 1.7 
z
" style="stroke: #ffffff; stroke-width: 0.5"/>
    </defs>
    <g clip-path="url(#p17374f29e9)">
     <use xlink:href="#m6d96589588" x="114.31467" y="67.325009" style="fill: #c0491e; stroke: #ffffff; stroke-width: 0.5"/>
     <use xlink:href="#m6d96589588" x="114.359127" y="66.401293" style="fill: #c0491e; stroke: #ffffff; stroke-width: 0.5"/>
     <use xlink:href="#m6d96589588" x="114.403583" y="65.477578" style="fill: #c0491e; stroke: #ffffff; stroke-width: 0.5"/>
     <use xlink:href="#m6d96589588" x="114.44804" y="64.553863" style="fill: #c0491e; stroke: #ffffff; stroke-width: 0.5"/>
     <use xlink:href="#m6d96589588" x="114.492497" y="63.630148" style="fill: #c0491e; stroke: #ffffff; stroke-width: 0.5"/>
    </g>
   </g>
   <g id="patch_14">
    <path d="M 114.270214 68.248724 
Q 114.381355 65.939436 114.35813 66.422001 
" clip-path="url(#p17374f29e9)" style="fill: none; stroke: #c0491e; stroke-width: 2.5; stroke-linecap: round"/>
    <path d="M 111.51116 71.491001 
L 114.35813 66.422001 
L 116.705148 71.740977 
z
" clip-path="url(#p17374f29e9)" style="fill: #c0491e; stroke: #c0491e; stroke-width: 2.5; stroke-linecap: round"/>
   </g>
   <g id="patch_15">
    <path d="M 114.270214 65.344684 
C 115.040374 65.344684 115.779094 65.650672 116.32368 66.195258 
C 116.868265 66.739843 117.174253 67.478564 117.174253 68.248724 
C 117.174253 69.018884 116.868265 69.757604 116.32368 70.30219 
C 115.779094 70.846776 115.040374 71.152764 114.270214 71.152764 
C 113.500053 71.152764 112.761333 70.846776 112.216747 70.30219 
C 111.672162 69.757604 111.366174 69.018884 111.366174 68.248724 
C 111.366174 67.478564 111.672162 66.739843 112.216747 66.195258 
C 112.761333 65.650672 113.500053 65.344684 114.270214 65.344684 
z
" clip-path="url(#p17374f29e9)" style="fill: #c0491e; stroke: #ffffff; stroke-linejoin: miter"/>
   </g>
  </g>
  <g id="axes_2">
   <g id="patch_16">
    <path d="M 162.810181 162.075056 
L 304.224293 162.075056 
L 304.224293 20.660944 
L 162.810181 20.660944 
z
" style="fill: #ffffff"/>
   </g>
   <g id="patch_17">
    <path d="M 174.476846 29.499326 
L 292.557629 29.499326 
Q 295.385911 29.499326 295.385911 32.327608 
L 295.385911 150.408392 
Q 295.385911 153.236674 292.557629 153.236674 
L 174.476846 153.236674 
Q 171.648563 153.236674 171.648563 150.408392 
L 171.648563 32.327608 
Q 171.648563 29.499326 174.476846 29.499326 
z
" clip-path="url(#p7c30f91838)" style="fill: #f6f8fa"/>
   </g>
   <g id="patch_18">
    <path d="M 169.123311 26.974074 
L 297.911163 26.974074 
L 297.911163 29.499326 
L 169.123311 29.499326 
z
" clip-path="url(#p7c30f91838)" style="fill: #c2cdd5; stroke: #9aa7b1; stroke-width: 0.6"/>
   </g>
   <g id="patch_19">
    <path d="M 169.123311 153.236674 
L 297.911163 153.236674 
L 297.911163 155.761926 
L 169.123311 155.761926 
z
" clip-path="url(#p7c30f91838)" style="fill: #c2cdd5; stroke: #9aa7b1; stroke-width: 0.6"/>
   </g>
   <g id="patch_20">
    <path d="M 169.123311 26.974074 
L 171.648563 26.974074 
L 171.648563 155.761926 
L 169.123311 155.761926 
z
" clip-path="url(#p7c30f91838)" style="fill: #c2cdd5; stroke: #9aa7b1; stroke-width: 0.6"/>
   </g>
   <g id="patch_21">
    <path d="M 295.385911 26.974074 
L 297.911163 26.974074 
L 297.911163 155.761926 
L 295.385911 155.761926 
z
" clip-path="url(#p7c30f91838)" style="fill: #c2cdd5; stroke: #9aa7b1; stroke-width: 0.6"/>
   </g>
   <g id="patch_22">
    <path d="M 231.938955 26.974074 
L 235.09552 26.974074 
Q 236.673802 26.974074 236.673802 28.552357 
L 236.673802 41.178617 
Q 236.673802 42.756899 235.09552 42.756899 
L 231.938955 42.756899 
Q 230.360672 42.756899 230.360672 41.178617 
L 230.360672 28.552357 
Q 230.360672 26.974074 231.938955 26.974074 
z
" clip-path="url(#p7c30f91838)" style="fill: #c2cdd5; stroke: #9aa7b1; stroke-width: 0.6; stroke-linejoin: miter"/>
   </g>
   <g id="patch_23">
    <path d="M 231.938955 60.433663 
L 235.09552 60.433663 
Q 236.673802 60.433663 236.673802 62.011946 
L 236.673802 154.183643 
Q 236.673802 155.761926 235.09552 155.761926 
L 231.938955 155.761926 
Q 230.360672 155.761926 230.360672 154.183643 
L 230.360672 62.011946 
Q 230.360672 60.433663 231.938955 60.433663 
z
" clip-path="url(#p7c30f91838)" style="fill: #c2cdd5; stroke: #9aa7b1; stroke-width: 0.6; stroke-linejoin: miter"/>
   </g>
   <g id="matplotlib.axis_3"/>
   <g id="matplotlib.axis_4"/>
   <g id="patch_24">
    <path d="M 217.802706 79.22584 
C 220.481524 79.22584 223.050986 80.290146 224.945197 82.184357 
C 226.839408 84.078568 227.903714 86.64803 227.903714 89.326848 
C 227.903714 92.005667 226.839408 94.575129 224.945197 96.46934 
C 223.050986 98.36355 220.481524 99.427856 217.802706 99.427856 
C 215.123887 99.427856 212.554425 98.36355 210.660215 96.46934 
C 208.766004 94.575129 207.701698 92.005667 207.701698 89.326848 
C 207.701698 86.64803 208.766004 84.078568 210.660215 82.184357 
C 212.554425 80.290146 215.123887 79.22584 217.802706 79.22584 
z
" clip-path="url(#p7c30f91838)" style="fill: #3d6b7a; opacity: 0.16"/>
   </g>
   <g id="patch_25">
    <path d="M 217.802706 79.22584 
C 220.481524 79.22584 223.050986 80.290146 224.945197 82.184357 
C 226.839408 84.078568 227.903714 86.64803 227.903714 89.326848 
C 227.903714 92.005667 226.839408 94.575129 224.945197 96.46934 
C 223.050986 98.36355 220.481524 99.427856 217.802706 99.427856 
C 215.123887 99.427856 212.554425 98.36355 210.660215 96.46934 
C 208.766004 94.575129 207.701698 92.005667 207.701698 89.326848 
C 207.701698 86.64803 208.766004 84.078568 210.660215 82.184357 
C 212.554425 80.290146 215.123887 79.22584 217.802706 79.22584 
L 217.802706 79.22584 
z
" clip-path="url(#p7c30f91838)" style="fill: none; opacity: 0.55; stroke-dasharray: 5.2,3.9; stroke-dashoffset: 0; stroke: #3d6b7a; stroke-width: 1.3; stroke-linejoin: miter"/>
   </g>
   <g id="patch_26">
    <path d="M 217.802706 85.223314 
C 218.890976 85.223314 219.93482 85.655688 220.704343 86.425211 
C 221.473866 87.194734 221.90624 88.238578 221.90624 89.326848 
C 221.90624 90.415118 221.473866 91.458962 220.704343 92.228485 
C 219.93482 92.998009 218.890976 93.430383 217.802706 93.430383 
C 216.714436 93.430383 215.670592 92.998009 214.901069 92.228485 
C 214.131546 91.458962 213.699171 90.415118 213.699171 89.326848 
C 213.699171 88.238578 214.131546 87.194734 214.901069 86.425211 
C 215.670592 85.655688 216.714436 85.223314 217.802706 85.223314 
z
" clip-path="url(#p7c30f91838)" style="fill: #3d6b7a; opacity: 0.32"/>
   </g>
   <g id="patch_27">
    <path d="M 217.802706 85.223314 
C 218.890976 85.223314 219.93482 85.655688 220.704343 86.425211 
C 221.473866 87.194734 221.90624 88.238578 221.90624 89.326848 
C 221.90624 90.415118 221.473866 91.458962 220.704343 92.228485 
C 219.93482 92.998009 218.890976 93.430383 217.802706 93.430383 
C 216.714436 93.430383 215.670592 92.998009 214.901069 92.228485 
C 214.131546 91.458962 213.699171 90.415118 213.699171 89.326848 
C 213.699171 88.238578 214.131546 87.194734 214.901069 86.425211 
C 215.670592 85.655688 216.714436 85.223314 217.802706 85.223314 
L 217.802706 85.223314 
z
" clip-path="url(#p7c30f91838)" style="fill: none; opacity: 0.7; stroke: #3d6b7a; stroke-width: 1.8; stroke-linejoin: miter"/>
   </g>
   <g id="line2d_3">
    <path d="M 268.411595 68.248724 
L 268.420486 68.063981 
L 268.429378 67.879238 
L 268.438269 67.694495 
L 268.44716 67.509752 
L 268.456052 67.325009 
L 268.464943 67.140266 
L 268.473834 66.955523 
L 268.482726 66.770779 
L 268.491617 66.586036 
L 268.500508 66.401293 
L 268.5094 66.21655 
L 268.518291 66.031807 
L 268.527182 65.847064 
L 268.536074 65.662321 
L 268.544965 65.477578 
L 268.553856 65.292835 
L 268.562748 65.108092 
L 268.571639 64.923349 
L 268.58053 64.738606 
L 268.589421 64.553863 
L 268.598313 64.36912 
L 268.607204 64.184377 
L 268.616095 63.999634 
L 268.624987 63.814891 
L 268.633878 63.630148 
" clip-path="url(#p7c30f91838)" style="fill: none; stroke: #c0491e; stroke-opacity: 0.15; stroke-width: 1.5; stroke-linecap: round"/>
   </g>
   <g id="text_2">
    <text style="font-size: 11px; font-family: 'DejaVu Sans'; text-anchor: middle; fill: #2b2f33" x="233.517237" y="14.660944" transform="rotate(-0 233.517237 14.660944)">iteration 2</text>
   </g>
   <g id="line2d_4">
    <path d="M 268.411595 68.248724 
L 267.762798 67.744693 
L 267.114011 67.230031 
L 266.465214 66.737647 
L 265.816417 66.236476 
L 265.16762 65.72588 
L 264.518803 65.267601 
L 263.869997 64.811971 
L 263.22118 64.378281 
L 262.572364 63.936735 
L 261.923548 63.486769 
L 261.27477 63.074522 
L 260.625992 62.666113 
L 259.977214 62.279702 
L 259.328437 61.887482 
L 258.679678 61.489905 
L 258.031372 61.103947 
L 257.383009 60.724907 
L 256.734674 60.369856 
L 256.08634 60.009018 
L 255.438101 59.644758 
L 254.790855 59.364659 
L 254.14359 59.053352 
L 253.496459 58.770677 
L 252.849175 58.490268 
L 252.202169 58.215376 
" clip-path="url(#p7c30f91838)" style="fill: none; stroke: #c0491e; stroke-opacity: 0.98; stroke-width: 2.5; stroke-linecap: round"/>
   </g>
   <g id="line2d_5">
    <g clip-path="url(#p7c30f91838)">
     <use xlink:href="#m6d96589588" x="265.16762" y="65.72588" style="fill: #c0491e; stroke: #ffffff; stroke-width: 0.5"/>
     <use xlink:href="#m6d96589588" x="261.923548" y="63.486769" style="fill: #c0491e; stroke: #ffffff; stroke-width: 0.5"/>
     <use xlink:href="#m6d96589588" x="258.679678" y="61.489905" style="fill: #c0491e; stroke: #ffffff; stroke-width: 0.5"/>
     <use xlink:href="#m6d96589588" x="255.438101" y="59.644758" style="fill: #c0491e; stroke: #ffffff; stroke-width: 0.5"/>
     <use xlink:href="#m6d96589588" x="252.202169" y="58.215376" style="fill: #c0491e; stroke: #ffffff; stroke-width: 0.5"/>
    </g>
   </g>
   <g id="patch_28">
    <path d="M 257.383009 60.724907 
Q 254.792589 59.470142 254.717682 59.433858 
" clip-path="url(#p7c30f91838)" style="fill: none; stroke: #c0491e; stroke-width: 2.5; stroke-linecap: round"/>
    <path d="M 258.264126 64.040671 
L 254.717682 59.433858 
L 260.531 59.36079 
z
" clip-path="url(#p7c30f91838)" style="fill: #c0491e; stroke: #c0491e; stroke-width: 2.5; stroke-linecap: round"/>
   </g>
   <g id="patch_29">
    <path d="M 268.411595 65.344684 
C 269.181755 65.344684 269.920476 65.650672 270.465061 66.195258 
C 271.009647 66.739843 271.315635 67.478564 271.315635 68.248724 
C 271.315635 69.018884 271.009647 69.757604 270.465061 70.30219 
C 269.920476 70.846776 269.181755 71.152764 268.411595 71.152764 
C 267.641435 71.152764 266.902714 70.846776 266.358129 70.30219 
C 265.813543 69.757604 265.507555 69.018884 265.507555 68.248724 
C 265.507555 67.478564 265.813543 66.739843 266.358129 66.195258 
C 266.902714 65.650672 267.641435 65.344684 268.411595 65.344684 
z
" clip-path="url(#p7c30f91838)" style="fill: #c0491e; stroke: #ffffff; stroke-linejoin: miter"/>
   </g>
  </g>
  <g id="axes_3">
   <g id="patch_30">
    <path d="M 316.951563 162.075056 
L 458.365674 162.075056 
L 458.365674 20.660944 
L 316.951563 20.660944 
z
" style="fill: #ffffff"/>
   </g>
   <g id="patch_31">
    <path d="M 328.618227 29.499326 
L 446.69901 29.499326 
Q 449.527292 29.499326 449.527292 32.327608 
L 449.527292 150.408392 
Q 449.527292 153.236674 446.69901 153.236674 
L 328.618227 153.236674 
Q 325.789945 153.236674 325.789945 150.408392 
L 325.789945 32.327608 
Q 325.789945 29.499326 328.618227 29.499326 
z
" clip-path="url(#pb69c6aea38)" style="fill: #f6f8fa"/>
   </g>
   <g id="patch_32">
    <path d="M 323.264693 26.974074 
L 452.052544 26.974074 
L 452.052544 29.499326 
L 323.264693 29.499326 
z
" clip-path="url(#pb69c6aea38)" style="fill: #c2cdd5; stroke: #9aa7b1; stroke-width: 0.6"/>
   </g>
   <g id="patch_33">
    <path d="M 323.264693 153.236674 
L 452.052544 153.236674 
L 452.052544 155.761926 
L 323.264693 155.761926 
z
" clip-path="url(#pb69c6aea38)" style="fill: #c2cdd5; stroke: #9aa7b1; stroke-width: 0.6"/>
   </g>
   <g id="patch_34">
    <path d="M 323.264693 26.974074 
L 325.789945 26.974074 
L 325.789945 155.761926 
L 323.264693 155.761926 
z
" clip-path="url(#pb69c6aea38)" style="fill: #c2cdd5; stroke: #9aa7b1; stroke-width: 0.6"/>
   </g>
   <g id="patch_35">
    <path d="M 449.527292 26.974074 
L 452.052544 26.974074 
L 452.052544 155.761926 
L 449.527292 155.761926 
z
" clip-path="url(#pb69c6aea38)" style="fill: #c2cdd5; stroke: #9aa7b1; stroke-width: 0.6"/>
   </g>
   <g id="patch_36">
    <path d="M 386.080336 26.974074 
L 389.236901 26.974074 
Q 390.815184 26.974074 390.815184 28.552357 
L 390.815184 41.178617 
Q 390.815184 42.756899 389.236901 42.756899 
L 386.080336 42.756899 
Q 384.502054 42.756899 384.502054 41.178617 
L 384.502054 28.552357 
Q 384.502054 26.974074 386.080336 26.974074 
z
" clip-path="url(#pb69c6aea38)" style="fill: #c2cdd5; stroke: #9aa7b1; stroke-width: 0.6; stroke-linejoin: miter"/>
   </g>
   <g id="patch_37">
    <path d="M 386.080336 60.433663 
L 389.236901 60.433663 
Q 390.815184 60.433663 390.815184 62.011946 
L 390.815184 154.183643 
Q 390.815184 155.761926 389.236901 155.761926 
L 386.080336 155.761926 
Q 384.502054 155.761926 384.502054 154.183643 
L 384.502054 62.011946 
Q 384.502054 60.433663 386.080336 60.433663 
z
" clip-path="url(#pb69c6aea38)" style="fill: #c2cdd5; stroke: #9aa7b1; stroke-width: 0.6; stroke-linejoin: miter"/>
   </g>
   <g id="matplotlib.axis_5"/>
   <g id="matplotlib.axis_6"/>
   <g id="patch_38">
    <path d="M 371.944087 79.22584 
C 374.622906 79.22584 377.192368 80.290146 379.086579 82.184357 
C 380.980789 84.078568 382.045095 86.64803 382.045095 89.326848 
C 382.045095 92.005667 380.980789 94.575129 379.086579 96.46934 
C 377.192368 98.36355 374.622906 99.427856 371.944087 99.427856 
C 369.265269 99.427856 366.695807 98.36355 364.801596 96.46934 
C 362.907385 94.575129 361.843079 92.005667 361.843079 89.326848 
C 361.843079 86.64803 362.907385 84.078568 364.801596 82.184357 
C 366.695807 80.290146 369.265269 79.22584 371.944087 79.22584 
z
" clip-path="url(#pb69c6aea38)" style="fill: #3d6b7a; opacity: 0.16"/>
   </g>
   <g id="patch_39">
    <path d="M 371.944087 79.22584 
C 374.622906 79.22584 377.192368 80.290146 379.086579 82.184357 
C 380.980789 84.078568 382.045095 86.64803 382.045095 89.326848 
C 382.045095 92.005667 380.980789 94.575129 379.086579 96.46934 
C 377.192368 98.36355 374.622906 99.427856 371.944087 99.427856 
C 369.265269 99.427856 366.695807 98.36355 364.801596 96.46934 
C 362.907385 94.575129 361.843079 92.005667 361.843079 89.326848 
C 361.843079 86.64803 362.907385 84.078568 364.801596 82.184357 
C 366.695807 80.290146 369.265269 79.22584 371.944087 79.22584 
L 371.944087 79.22584 
z
" clip-path="url(#pb69c6aea38)" style="fill: none; opacity: 0.55; stroke-dasharray: 5.2,3.9; stroke-dashoffset: 0; stroke: #3d6b7a; stroke-width: 1.3; stroke-linejoin: miter"/>
   </g>
   <g id="patch_40">
    <path d="M 371.944087 85.223314 
C 373.032357 85.223314 374.076201 85.655688 374.845724 86.425211 
C 375.615247 87.194734 376.047622 88.238578 376.047622 89.326848 
C 376.047622 90.415118 375.615247 91.458962 374.845724 92.228485 
C 374.076201 92.998009 373.032357 93.430383 371.944087 93.430383 
C 370.855817 93.430383 369.811973 92.998009 369.04245 92.228485 
C 368.272927 91.458962 367.840553 90.415118 367.840553 89.326848 
C 367.840553 88.238578 368.272927 87.194734 369.04245 86.425211 
C 369.811973 85.655688 370.855817 85.223314 371.944087 85.223314 
z
" clip-path="url(#pb69c6aea38)" style="fill: #3d6b7a; opacity: 0.32"/>
   </g>
   <g id="patch_41">
    <path d="M 371.944087 85.223314 
C 373.032357 85.223314 374.076201 85.655688 374.845724 86.425211 
C 375.615247 87.194734 376.047622 88.238578 376.047622 89.326848 
C 376.047622 90.415118 375.615247 91.458962 374.845724 92.228485 
C 374.076201 92.998009 373.032357 93.430383 371.944087 93.430383 
C 370.855817 93.430383 369.811973 92.998009 369.04245 92.228485 
C 368.272927 91.458962 367.840553 90.415118 367.840553 89.326848 
C 367.840553 88.238578 368.272927 87.194734 369.04245 86.425211 
C 369.811973 85.655688 370.855817 85.223314 371.944087 85.223314 
L 371.944087 85.223314 
z
" clip-path="url(#pb69c6aea38)" style="fill: none; opacity: 0.7; stroke: #3d6b7a; stroke-width: 1.8; stroke-linejoin: miter"/>
   </g>
   <g id="line2d_6">
    <path d="M 422.552976 68.248724 
L 421.904179 67.744693 
L 421.255392 67.230031 
L 420.606595 66.737647 
L 419.957798 66.236476 
L 419.309001 65.72588 
L 418.660185 65.267601 
L 418.011378 64.811971 
L 417.362562 64.378281 
L 416.713745 63.936735 
L 416.064929 63.486769 
L 415.416151 63.074522 
L 414.767374 62.666113 
L 414.118596 62.279702 
L 413.469818 61.887482 
L 412.82106 61.489905 
L 412.172754 61.103947 
L 411.52439 60.724907 
L 410.876056 60.369856 
L 410.227721 60.009018 
L 409.579483 59.644758 
L 408.932237 59.364659 
L 408.284971 59.053352 
L 407.637841 58.770677 
L 406.990556 58.490268 
L 406.343551 58.215376 
" clip-path="url(#pb69c6aea38)" style="fill: none; stroke: #c0491e; stroke-opacity: 0.15; stroke-width: 1.5; stroke-linecap: round"/>
   </g>
   <g id="text_3">
    <text style="font-size: 11px; font-family: 'DejaVu Sans'; text-anchor: middle; fill: #2b2f33" x="387.658619" y="14.660944" transform="rotate(-0 387.658619 14.660944)">iteration 4</text>
   </g>
   <g id="line2d_7">
    <path d="M 422.552976 68.248724 
L 421.247849 67.438698 
L 419.942761 66.606145 
L 418.637663 65.82209 
L 417.332497 65.023894 
L 416.027418 64.196929 
L 414.723466 63.478884 
L 413.419562 62.765411 
L 412.115582 62.100897 
L 410.811514 61.427825 
L 409.507793 60.724201 
L 408.207165 60.081676 
L 406.906373 59.448937 
L 405.605465 58.867253 
L 404.304547 58.280604 
L 403.00415 57.673617 
L 401.705776 57.042234 
L 400.407219 56.433321 
L 399.108594 55.878622 
L 397.809988 55.31934 
L 396.511696 54.74898 
L 395.217382 54.301931 
L 393.923053 53.832723 
L 392.628662 53.416187 
L 391.333674 53.011694 
L 390.03923 52.613685 
" clip-path="url(#pb69c6aea38)" style="fill: none; stroke: #c0491e; stroke-opacity: 0.98; stroke-width: 2.5; stroke-linecap: round"/>
   </g>
   <g id="line2d_8">
    <g clip-path="url(#pb69c6aea38)">
     <use xlink:href="#m6d96589588" x="416.027418" y="64.196929" style="fill: #c0491e; stroke: #ffffff; stroke-width: 0.5"/>
     <use xlink:href="#m6d96589588" x="409.507793" y="60.724201" style="fill: #c0491e; stroke: #ffffff; stroke-width: 0.5"/>
     <use xlink:href="#m6d96589588" x="403.00415" y="57.673617" style="fill: #c0491e; stroke: #ffffff; stroke-width: 0.5"/>
     <use xlink:href="#m6d96589588" x="396.511696" y="54.74898" style="fill: #c0491e; stroke: #ffffff; stroke-width: 0.5"/>
     <use xlink:href="#m6d96589588" x="390.03923" y="52.613685" style="fill: #c0491e; stroke: #ffffff; stroke-width: 0.5"/>
    </g>
   </g>
   <g id="patch_42">
    <path d="M 396.511696 54.74898 
Q 393.275463 53.681333 392.693598 53.489373 
" clip-path="url(#pb69c6aea38)" style="fill: none; stroke: #c0491e; stroke-width: 2.5; stroke-linecap: round"/>
    <path d="M 396.817239 57.587615 
L 392.693598 53.489373 
L 398.446376 52.649406 
z
" clip-path="url(#pb69c6aea38)" style="fill: #c0491e; stroke: #c0491e; stroke-width: 2.5; stroke-linecap: round"/>
   </g>
   <g id="patch_43">
    <path d="M 422.552976 65.344684 
C 423.323137 65.344684 424.061857 65.650672 424.606443 66.195258 
C 425.151028 66.739843 425.457016 67.478564 425.457016 68.248724 
C 425.457016 69.018884 425.151028 69.757604 424.606443 70.30219 
C 424.061857 70.846776 423.323137 71.152764 422.552976 71.152764 
C 421.782816 71.152764 421.044096 70.846776 420.49951 70.30219 
C 419.954925 69.757604 419.648937 69.018884 419.648937 68.248724 
C 419.648937 67.478564 419.954925 66.739843 420.49951 66.195258 
C 421.044096 65.650672 421.782816 65.344684 422.552976 65.344684 
z
" clip-path="url(#pb69c6aea38)" style="fill: #c0491e; stroke: #ffffff; stroke-linejoin: miter"/>
   </g>
  </g>
  <g id="axes_4">
   <g id="patch_44">
    <path d="M 471.092944 162.075056 
L 612.507056 162.075056 
L 612.507056 20.660944 
L 471.092944 20.660944 
z
" style="fill: #ffffff"/>
   </g>
   <g id="patch_45">
    <path d="M 482.759608 29.499326 
L 600.840392 29.499326 
Q 603.668674 29.499326 603.668674 32.327608 
L 603.668674 150.408392 
Q 603.668674 153.236674 600.840392 153.236674 
L 482.759608 153.236674 
Q 479.931326 153.236674 479.931326 150.408392 
L 479.931326 32.327608 
Q 479.931326 29.499326 482.759608 29.499326 
z
" clip-path="url(#p1fc7f7c847)" style="fill: #f6f8fa"/>
   </g>
   <g id="patch_46">
    <path d="M 477.406074 26.974074 
L 606.193926 26.974074 
L 606.193926 29.499326 
L 477.406074 29.499326 
z
" clip-path="url(#p1fc7f7c847)" style="fill: #c2cdd5; stroke: #9aa7b1; stroke-width: 0.6"/>
   </g>
   <g id="patch_47">
    <path d="M 477.406074 153.236674 
L 606.193926 153.236674 
L 606.193926 155.761926 
L 477.406074 155.761926 
z
" clip-path="url(#p1fc7f7c847)" style="fill: #c2cdd5; stroke: #9aa7b1; stroke-width: 0.6"/>
   </g>
   <g id="patch_48">
    <path d="M 477.406074 26.974074 
L 479.931326 26.974074 
L 479.931326 155.761926 
L 477.406074 155.761926 
z
" clip-path="url(#p1fc7f7c847)" style="fill: #c2cdd5; stroke: #9aa7b1; stroke-width: 0.6"/>
   </g>
   <g id="patch_49">
    <path d="M 603.668674 26.974074 
L 606.193926 26.974074 
L 606.193926 155.761926 
L 603.668674 155.761926 
z
" clip-path="url(#p1fc7f7c847)" style="fill: #c2cdd5; stroke: #9aa7b1; stroke-width: 0.6"/>
   </g>
   <g id="patch_50">
    <path d="M 540.221718 26.974074 
L 543.378282 26.974074 
Q 544.956565 26.974074 544.956565 28.552357 
L 544.956565 41.178617 
Q 544.956565 42.756899 543.378282 42.756899 
L 540.221718 42.756899 
Q 538.643435 42.756899 538.643435 41.178617 
L 538.643435 28.552357 
Q 538.643435 26.974074 540.221718 26.974074 
z
" clip-path="url(#p1fc7f7c847)" style="fill: #c2cdd5; stroke: #9aa7b1; stroke-width: 0.6; stroke-linejoin: miter"/>
   </g>
   <g id="patch_51">
    <path d="M 540.221718 60.433663 
L 543.378282 60.433663 
Q 544.956565 60.433663 544.956565 62.011946 
L 544.956565 154.183643 
Q 544.956565 155.761926 543.378282 155.761926 
L 540.221718 155.761926 
Q 538.643435 155.761926 538.643435 154.183643 
L 538.643435 62.011946 
Q 538.643435 60.433663 540.221718 60.433663 
z
" clip-path="url(#p1fc7f7c847)" style="fill: #c2cdd5; stroke: #9aa7b1; stroke-width: 0.6; stroke-linejoin: miter"/>
   </g>
   <g id="matplotlib.axis_7"/>
   <g id="matplotlib.axis_8"/>
   <g id="patch_52">
    <path d="M 526.085469 79.22584 
C 528.764287 79.22584 531.333749 80.290146 533.22796 82.184357 
C 535.122171 84.078568 536.186477 86.64803 536.186477 89.326848 
C 536.186477 92.005667 535.122171 94.575129 533.22796 96.46934 
C 531.333749 98.36355 528.764287 99.427856 526.085469 99.427856 
C 523.40665 99.427856 520.837188 98.36355 518.942978 96.46934 
C 517.048767 94.575129 515.984461 92.005667 515.984461 89.326848 
C 515.984461 86.64803 517.048767 84.078568 518.942978 82.184357 
C 520.837188 80.290146 523.40665 79.22584 526.085469 79.22584 
z
" clip-path="url(#p1fc7f7c847)" style="fill: #3d6b7a; opacity: 0.16"/>
   </g>
   <g id="patch_53">
    <path d="M 526.085469 79.22584 
C 528.764287 79.22584 531.333749 80.290146 533.22796 82.184357 
C 535.122171 84.078568 536.186477 86.64803 536.186477 89.326848 
C 536.186477 92.005667 535.122171 94.575129 533.22796 96.46934 
C 531.333749 98.36355 528.764287 99.427856 526.085469 99.427856 
C 523.40665 99.427856 520.837188 98.36355 518.942978 96.46934 
C 517.048767 94.575129 515.984461 92.005667 515.984461 89.326848 
C 515.984461 86.64803 517.048767 84.078568 518.942978 82.184357 
C 520.837188 80.290146 523.40665 79.22584 526.085469 79.22584 
L 526.085469 79.22584 
z
" clip-path="url(#p1fc7f7c847)" style="fill: none; opacity: 0.55; stroke-dasharray: 5.2,3.9; stroke-dashoffset: 0; stroke: #3d6b7a; stroke-width: 1.3; stroke-linejoin: miter"/>
   </g>
   <g id="patch_54">
    <path d="M 526.085469 85.223314 
C 527.173739 85.223314 528.217583 85.655688 528.987106 86.425211 
C 529.756629 87.194734 530.189003 88.238578 530.189003 89.326848 
C 530.189003 90.415118 529.756629 91.458962 528.987106 92.228485 
C 528.217583 92.998009 527.173739 93.430383 526.085469 93.430383 
C 524.997199 93.430383 523.953355 92.998009 523.183832 92.228485 
C 522.414309 91.458962 521.981934 90.415118 521.981934 89.326848 
C 521.981934 88.238578 522.414309 87.194734 523.183832 86.425211 
C 523.953355 85.655688 524.997199 85.223314 526.085469 85.223314 
z
" clip-path="url(#p1fc7f7c847)" style="fill: #3d6b7a; opacity: 0.32"/>
   </g>
   <g id="patch_55">
    <path d="M 526.085469 85.223314 
C 527.173739 85.223314 528.217583 85.655688 528.987106 86.425211 
C 529.756629 87.194734 530.189003 88.238578 530.189003 89.326848 
C 530.189003 90.415118 529.756629 91.458962 528.987106 92.228485 
C 528.217583 92.998009 527.173739 93.430383 526.085469 93.430383 
C 524.997199 93.430383 523.953355 92.998009 523.183832 92.228485 
C 522.414309 91.458962 521.981934 90.415118 521.981934 89.326848 
C 521.981934 88.238578 522.414309 87.194734 523.183832 86.425211 
C 523.953355 85.655688 524.997199 85.223314 526.085469 85.223314 
L 526.085469 85.223314 
z
" clip-path="url(#p1fc7f7c847)" style="fill: none; opacity: 0.7; stroke: #3d6b7a; stroke-width: 1.8; stroke-linejoin: miter"/>
   </g>
   <g id="line2d_9">
    <path d="M 576.694358 68.248724 
L 575.389231 67.438698 
L 574.084142 66.606145 
L 572.779044 65.82209 
L 571.473878 65.023894 
L 570.168799 64.196929 
L 568.864848 63.478884 
L 567.560944 62.765411 
L 566.256963 62.100897 
L 564.952896 61.427825 
L 563.649175 60.724201 
L 562.348546 60.081676 
L 561.047754 59.448937 
L 559.746846 58.867253 
L 558.445929 58.280604 
L 557.145532 57.673617 
L 555.847157 57.042234 
L 554.5486 56.433321 
L 553.249975 55.878622 
L 551.95137 55.31934 
L 550.653077 54.74898 
L 549.358763 54.301931 
L 548.064435 53.832723 
L 546.770044 53.416187 
L 545.475055 53.011694 
L 544.180611 52.613685 
" clip-path="url(#p1fc7f7c847)" style="fill: none; stroke: #c0491e; stroke-opacity: 0.15; stroke-width: 1.5; stroke-linecap: round"/>
   </g>
   <g id="text_4">
    <text style="font-size: 11px; font-family: 'DejaVu Sans'; text-anchor: middle; fill: #2b2f33" x="541.8" y="14.660944" transform="rotate(-0 541.8 14.660944)">iteration 8</text>
   </g>
   <g id="line2d_10">
    <path d="M 576.694358 68.248724 
L 574.229341 67.477317 
L 571.761686 66.676481 
L 569.293837 65.941651 
L 566.828426 65.197761 
L 564.363785 64.392894 
L 561.900772 63.721281 
L 559.438848 63.065467 
L 556.977598 62.477011 
L 554.518217 61.880888 
L 552.056553 61.237899 
L 549.602388 60.653393 
L 547.145921 60.087299 
L 544.688655 59.589117 
L 542.231831 59.082177 
L 539.775629 58.543038 
L 537.316528 58.01235 
L 534.857787 57.513325 
L 532.398565 57.085374 
L 529.940846 56.65471 
L 527.484759 56.201233 
L 525.038884 55.959313 
L 522.591631 55.700612 
L 520.144021 55.50868 
L 517.697664 55.346019 
L 515.251047 55.193648 
" clip-path="url(#p1fc7f7c847)" style="fill: none; stroke: #c0491e; stroke-opacity: 0.98; stroke-width: 2.5; stroke-linecap: round"/>
   </g>
   <g id="line2d_11">
    <g clip-path="url(#p1fc7f7c847)">
     <use xlink:href="#m6d96589588" x="564.363785" y="64.392894" style="fill: #c0491e; stroke: #ffffff; stroke-width: 0.5"/>
     <use xlink:href="#m6d96589588" x="552.056553" y="61.237899" style="fill: #c0491e; stroke: #ffffff; stroke-width: 0.5"/>
     <use xlink:href="#m6d96589588" x="539.775629" y="58.543038" style="fill: #c0491e; stroke: #ffffff; stroke-width: 0.5"/>
     <use xlink:href="#m6d96589588" x="527.484759" y="56.201233" style="fill: #c0491e; stroke: #ffffff; stroke-width: 0.5"/>
     <use xlink:href="#m6d96589588" x="515.251047" y="55.193648" style="fill: #c0491e; stroke: #ffffff; stroke-width: 0.5"/>
    </g>
   </g>
   <g id="patch_56">
    <path d="M 522.591631 55.700612 
Q 518.921339 55.44713 518.03949 55.386227 
" clip-path="url(#p1fc7f7c847)" style="fill: none; stroke: #c0491e; stroke-width: 2.5; stroke-linecap: round"/>
    <path d="M 523.047995 58.338323 
L 518.03949 55.386227 
L 523.40627 53.150681 
z
" clip-path="url(#p1fc7f7c847)" style="fill: #c0491e; stroke: #c0491e; stroke-width: 2.5; stroke-linecap: round"/>
   </g>
   <g id="patch_57">
    <path d="M 576.694358 65.344684 
C 577.464518 65.344684 578.203238 65.650672 578.747824 66.195258 
C 579.29241 66.739843 579.598398 67.478564 579.598398 68.248724 
C 579.598398 69.018884 579.29241 69.757604 578.747824 70.30219 
C 578.203238 70.846776 577.464518 71.152764 576.694358 71.152764 
C 575.924197 71.152764 575.185477 70.846776 574.640892 70.30219 
C 574.096306 69.757604 573.790318 69.018884 573.790318 68.248724 
C 573.790318 67.478564 574.096306 66.739843 574.640892 66.195258 
C 575.185477 65.650672 575.924197 65.344684 576.694358 65.344684 
z
" clip-path="url(#p1fc7f7c847)" style="fill: #c0491e; stroke: #ffffff; stroke-linejoin: miter"/>
   </g>
  </g>
  <g id="axes_5">
   <g id="patch_58">
    <path d="M 625.234326 162.075056 
L 766.648437 162.075056 
L 766.648437 20.660944 
L 625.234326 20.660944 
z
" style="fill: #ffffff"/>
   </g>
   <g id="patch_59">
    <path d="M 636.90099 29.499326 
L 754.981773 29.499326 
Q 757.810055 29.499326 757.810055 32.327608 
L 757.810055 150.408392 
Q 757.810055 153.236674 754.981773 153.236674 
L 636.90099 153.236674 
Q 634.072708 153.236674 634.072708 150.408392 
L 634.072708 32.327608 
Q 634.072708 29.499326 636.90099 29.499326 
z
" clip-path="url(#p5a38d0b30e)" style="fill: #f6f8fa"/>
   </g>
   <g id="patch_60">
    <path d="M 631.547456 26.974074 
L 760.335307 26.974074 
L 760.335307 29.499326 
L 631.547456 29.499326 
z
" clip-path="url(#p5a38d0b30e)" style="fill: #c2cdd5; stroke: #9aa7b1; stroke-width: 0.6"/>
   </g>
   <g id="patch_61">
    <path d="M 631.547456 153.236674 
L 760.335307 153.236674 
L 760.335307 155.761926 
L 631.547456 155.761926 
z
" clip-path="url(#p5a38d0b30e)" style="fill: #c2cdd5; stroke: #9aa7b1; stroke-width: 0.6"/>
   </g>
   <g id="patch_62">
    <path d="M 631.547456 26.974074 
L 634.072708 26.974074 
L 634.072708 155.761926 
L 631.547456 155.761926 
z
" clip-path="url(#p5a38d0b30e)" style="fill: #c2cdd5; stroke: #9aa7b1; stroke-width: 0.6"/>
   </g>
   <g id="patch_63">
    <path d="M 757.810055 26.974074 
L 760.335307 26.974074 
L 760.335307 155.761926 
L 757.810055 155.761926 
z
" clip-path="url(#p5a38d0b30e)" style="fill: #c2cdd5; stroke: #9aa7b1; stroke-width: 0.6"/>
   </g>
   <g id="patch_64">
    <path d="M 694.363099 26.974074 
L 697.519664 26.974074 
Q 699.097946 26.974074 699.097946 28.552357 
L 699.097946 41.178617 
Q 699.097946 42.756899 697.519664 42.756899 
L 694.363099 42.756899 
Q 692.784816 42.756899 692.784816 41.178617 
L 692.784816 28.552357 
Q 692.784816 26.974074 694.363099 26.974074 
z
" clip-path="url(#p5a38d0b30e)" style="fill: #c2cdd5; stroke: #9aa7b1; stroke-width: 0.6; stroke-linejoin: miter"/>
   </g>
   <g id="patch_65">
    <path d="M 694.363099 60.433663 
L 697.519664 60.433663 
Q 699.097946 60.433663 699.097946 62.011946 
L 699.097946 154.183643 
Q 699.097946 155.761926 697.519664 155.761926 
L 694.363099 155.761926 
Q 692.784816 155.761926 692.784816 154.183643 
L 692.784816 62.011946 
Q 692.784816 60.433663 694.363099 60.433663 
z
" clip-path="url(#p5a38d0b30e)" style="fill: #c2cdd5; stroke: #9aa7b1; stroke-width: 0.6; stroke-linejoin: miter"/>
   </g>
   <g id="matplotlib.axis_9"/>
   <g id="matplotlib.axis_10"/>
   <g id="patch_66">
    <path d="M 680.22685 79.22584 
C 682.905669 79.22584 685.475131 80.290146 687.369341 82.184357 
C 689.263552 84.078568 690.327858 86.64803 690.327858 89.326848 
C 690.327858 92.005667 689.263552 94.575129 687.369341 96.46934 
C 685.475131 98.36355 682.905669 99.427856 680.22685 99.427856 
C 677.548032 99.427856 674.97857 98.36355 673.084359 96.46934 
C 671.190148 94.575129 670.125842 92.005667 670.125842 89.326848 
C 670.125842 86.64803 671.190148 84.078568 673.084359 82.184357 
C 674.97857 80.290146 677.548032 79.22584 680.22685 79.22584 
z
" clip-path="url(#p5a38d0b30e)" style="fill: #3d6b7a; opacity: 0.16"/>
   </g>
   <g id="patch_67">
    <path d="M 680.22685 79.22584 
C 682.905669 79.22584 685.475131 80.290146 687.369341 82.184357 
C 689.263552 84.078568 690.327858 86.64803 690.327858 89.326848 
C 690.327858 92.005667 689.263552 94.575129 687.369341 96.46934 
C 685.475131 98.36355 682.905669 99.427856 680.22685 99.427856 
C 677.548032 99.427856 674.97857 98.36355 673.084359 96.46934 
C 671.190148 94.575129 670.125842 92.005667 670.125842 89.326848 
C 670.125842 86.64803 671.190148 84.078568 673.084359 82.184357 
C 674.97857 80.290146 677.548032 79.22584 680.22685 79.22584 
L 680.22685 79.22584 
z
" clip-path="url(#p5a38d0b30e)" style="fill: none; opacity: 0.55; stroke-dasharray: 5.2,3.9; stroke-dashoffset: 0; stroke: #3d6b7a; stroke-width: 1.3; stroke-linejoin: miter"/>
   </g>
   <g id="patch_68">
    <path d="M 680.22685 85.223314 
C 681.31512 85.223314 682.358964 85.655688 683.128487 86.425211 
C 683.89801 87.194734 684.330385 88.238578 684.330385 89.326848 
C 684.330385 90.415118 683.89801 91.458962 683.128487 92.228485 
C 682.358964 92.998009 681.31512 93.430383 680.22685 93.430383 
C 679.13858 93.430383 678.094736 92.998009 677.325213 92.228485 
C 676.55569 91.458962 676.123316 90.415118 676.123316 89.326848 
C 676.123316 88.238578 676.55569 87.194734 677.325213 86.425211 
C 678.094736 85.655688 679.13858 85.223314 680.22685 85.223314 
z
" clip-path="url(#p5a38d0b30e)" style="fill: #3d6b7a; opacity: 0.32"/>
   </g>
   <g id="patch_69">
    <path d="M 680.22685 85.223314 
C 681.31512 85.223314 682.358964 85.655688 683.128487 86.425211 
C 683.89801 87.194734 684.330385 88.238578 684.330385 89.326848 
C 684.330385 90.415118 683.89801 91.458962 683.128487 92.228485 
C 682.358964 92.998009 681.31512 93.430383 680.22685 93.430383 
C 679.13858 93.430383 678.094736 92.998009 677.325213 92.228485 
C 676.55569 91.458962 676.123316 90.415118 676.123316 89.326848 
C 676.123316 88.238578 676.55569 87.194734 677.325213 86.425211 
C 678.094736 85.655688 679.13858 85.223314 680.22685 85.223314 
L 680.22685 85.223314 
z
" clip-path="url(#p5a38d0b30e)" style="fill: none; opacity: 0.7; stroke: #3d6b7a; stroke-width: 1.8; stroke-linejoin: miter"/>
   </g>
   <g id="line2d_12">
    <path d="M 730.835739 68.248724 
L 728.370723 67.477317 
L 725.903067 66.676481 
L 723.435219 65.941651 
L 720.969807 65.197761 
L 718.505166 64.392894 
L 716.042154 63.721281 
L 713.58023 63.065467 
L 711.11898 62.477011 
L 708.659599 61.880888 
L 706.197935 61.237899 
L 703.74377 60.653393 
L 701.287303 60.087299 
L 698.830036 59.589117 
L 696.373213 59.082177 
L 693.917011 58.543038 
L 691.457909 58.01235 
L 688.999169 57.513325 
L 686.539946 57.085374 
L 684.082227 56.65471 
L 681.626141 56.201233 
L 679.180265 55.959313 
L 676.733012 55.700612 
L 674.285403 55.50868 
L 671.839046 55.346019 
L 669.392428 55.193648 
" clip-path="url(#p5a38d0b30e)" style="fill: none; stroke: #c0491e; stroke-opacity: 0.15; stroke-width: 1.5; stroke-linecap: round"/>
   </g>
   <g id="text_5">
    <text style="font-size: 11px; font-family: 'DejaVu Sans'; text-anchor: middle; fill: #2b2f33" x="695.941381" y="14.660944" transform="rotate(-0 695.941381 14.660944)">iteration 14</text>
   </g>
   <g id="line2d_13">
    <path d="M 730.835739 68.248724 
L 727.679174 67.165051 
L 724.522609 66.051208 
L 721.366044 65.00628 
L 718.209479 63.952855 
L 715.052914 62.83265 
L 711.896349 61.850539 
L 708.739784 60.88667 
L 705.583219 59.992025 
L 702.426654 59.089541 
L 699.270089 58.13743 
L 696.113524 57.239883 
L 692.956959 56.362238 
L 689.800394 55.55496 
L 686.643829 54.737608 
L 683.487264 53.887839 
L 680.330699 53.054923 
L 677.174135 52.265184 
L 674.01757 51.554967 
L 670.861005 50.839805 
L 667.70444 50.094372 
L 664.547875 49.633179 
L 661.39131 49.157909 
L 658.234745 48.744364 
L 655.07818 48.36879 
L 651.921615 48.03536 
" clip-path="url(#p5a38d0b30e)" style="fill: none; stroke: #c0491e; stroke-opacity: 0.98; stroke-width: 2.5; stroke-linecap: round"/>
   </g>
   <g id="line2d_14">
    <g clip-path="url(#p5a38d0b30e)">
     <use xlink:href="#m6d96589588" x="715.052914" y="62.83265" style="fill: #c0491e; stroke: #ffffff; stroke-width: 0.5"/>
     <use xlink:href="#m6d96589588" x="699.270089" y="58.13743" style="fill: #c0491e; stroke: #ffffff; stroke-width: 0.5"/>
     <use xlink:href="#m6d96589588" x="683.487264" y="53.887839" style="fill: #c0491e; stroke: #ffffff; stroke-width: 0.5"/>
     <use xlink:href="#m6d96589588" x="667.70444" y="50.094372" style="fill: #c0491e; stroke: #ffffff; stroke-width: 0.5"/>
     <use xlink:href="#m6d96589588" x="651.921615" y="48.03536" style="fill: #c0491e; stroke: #ffffff; stroke-width: 0.5"/>
    </g>
   </g>
   <g id="patch_70">
    <path d="M 658.234745 48.744364 
Q 655.07818 48.389862 654.699238 48.347305 
" clip-path="url(#p5a38d0b30e)" style="fill: none; stroke: #c0491e; stroke-width: 2.5; stroke-linecap: round"/>
    <path d="M 659.57658 51.511405 
L 654.699238 48.347305 
L 660.156924 46.343891 
z
" clip-path="url(#p5a38d0b30e)" style="fill: #c0491e; stroke: #c0491e; stroke-width: 2.5; stroke-linecap: round"/>
   </g>
   <g id="patch_71">
    <path d="M 730.835739 65.344684 
C 731.6059 65.344684 732.34462 65.650672 732.889206 66.195258 
C 733.433791 66.739843 733.739779 67.478564 733.739779 68.248724 
C 733.739779 69.018884 733.433791 69.757604 732.889206 70.30219 
C 732.34462 70.846776 731.6059 71.152764 730.835739 71.152764 
C 730.065579 71.152764 729.326859 70.846776 728.782273 70.30219 
C 728.237687 69.757604 727.931699 69.018884 727.931699 68.248724 
C 727.931699 67.478564 728.237687 66.739843 728.782273 66.195258 
C 729.326859 65.650672 730.065579 65.344684 730.835739 65.344684 
z
" clip-path="url(#p5a38d0b30e)" style="fill: #c0491e; stroke: #ffffff; stroke-linejoin: miter"/>
   </g>
  </g>
  <g id="axes_6">
   <g id="patch_72">
    <path d="M 779.375707 162.075056 
L 920.789819 162.075056 
L 920.789819 20.660944 
L 779.375707 20.660944 
z
" style="fill: #ffffff"/>
   </g>
   <g id="patch_73">
    <path d="M 791.042371 29.499326 
L 909.123154 29.499326 
Q 911.951437 29.499326 911.951437 32.327608 
L 911.951437 150.408392 
Q 911.951437 153.236674 909.123154 153.236674 
L 791.042371 153.236674 
Q 788.214089 153.236674 788.214089 150.408392 
L 788.214089 32.327608 
Q 788.214089 29.499326 791.042371 29.499326 
z
" clip-path="url(#pdd5fd20ca9)" style="fill: #f6f8fa"/>
   </g>
   <g id="patch_74">
    <path d="M 785.688837 26.974074 
L 914.476689 26.974074 
L 914.476689 29.499326 
L 785.688837 29.499326 
z
" clip-path="url(#pdd5fd20ca9)" style="fill: #c2cdd5; stroke: #9aa7b1; stroke-width: 0.6"/>
   </g>
   <g id="patch_75">
    <path d="M 785.688837 153.236674 
L 914.476689 153.236674 
L 914.476689 155.761926 
L 785.688837 155.761926 
z
" clip-path="url(#pdd5fd20ca9)" style="fill: #c2cdd5; stroke: #9aa7b1; stroke-width: 0.6"/>
   </g>
   <g id="patch_76">
    <path d="M 785.688837 26.974074 
L 788.214089 26.974074 
L 788.214089 155.761926 
L 785.688837 155.761926 
z
" clip-path="url(#pdd5fd20ca9)" style="fill: #c2cdd5; stroke: #9aa7b1; stroke-width: 0.6"/>
   </g>
   <g id="patch_77">
    <path d="M 911.951437 26.974074 
L 914.476689 26.974074 
L 914.476689 155.761926 
L 911.951437 155.761926 
z
" clip-path="url(#pdd5fd20ca9)" style="fill: #c2cdd5; stroke: #9aa7b1; stroke-width: 0.6"/>
   </g>
   <g id="patch_78">
    <path d="M 848.50448 26.974074 
L 851.661045 26.974074 
Q 853.239328 26.974074 853.239328 28.552357 
L 853.239328 41.178617 
Q 853.239328 42.756899 851.661045 42.756899 
L 848.50448 42.756899 
Q 846.926198 42.756899 846.926198 41.178617 
L 846.926198 28.552357 
Q 846.926198 26.974074 848.50448 26.974074 
z
" clip-path="url(#pdd5fd20ca9)" style="fill: #c2cdd5; stroke: #9aa7b1; stroke-width: 0.6; stroke-linejoin: miter"/>
   </g>
   <g id="patch_79">
    <path d="M 848.50448 60.433663 
L 851.661045 60.433663 
Q 853.239328 60.433663 853.239328 62.011946 
L 853.239328 154.183643 
Q 853.239328 155.761926 851.661045 155.761926 
L 848.50448 155.761926 
Q 846.926198 155.761926 846.926198 154.183643 
L 846.926198 62.011946 
Q 846.926198 60.433663 848.50448 60.433663 
z
" clip-path="url(#pdd5fd20ca9)" style="fill: #c2cdd5; stroke: #9aa7b1; stroke-width: 0.6; stroke-linejoin: miter"/>
   </g>
   <g id="matplotlib.axis_11"/>
   <g id="matplotlib.axis_12"/>
   <g id="patch_80">
    <path d="M 834.368232 79.22584 
C 837.04705 79.22584 839.616512 80.290146 841.510723 82.184357 
C 843.404934 84.078568 844.46924 86.64803 844.46924 89.326848 
C 844.46924 92.005667 843.404934 94.575129 841.510723 96.46934 
C 839.616512 98.36355 837.04705 99.427856 834.368232 99.427856 
C 831.689413 99.427856 829.119951 98.36355 827.22574 96.46934 
C 825.33153 94.575129 824.267224 92.005667 824.267224 89.326848 
C 824.267224 86.64803 825.33153 84.078568 827.22574 82.184357 
C 829.119951 80.290146 831.689413 79.22584 834.368232 79.22584 
z
" clip-path="url(#pdd5fd20ca9)" style="fill: #3d6b7a; opacity: 0.16"/>
   </g>
   <g id="patch_81">
    <path d="M 834.368232 79.22584 
C 837.04705 79.22584 839.616512 80.290146 841.510723 82.184357 
C 843.404934 84.078568 844.46924 86.64803 844.46924 89.326848 
C 844.46924 92.005667 843.404934 94.575129 841.510723 96.46934 
C 839.616512 98.36355 837.04705 99.427856 834.368232 99.427856 
C 831.689413 99.427856 829.119951 98.36355 827.22574 96.46934 
C 825.33153 94.575129 824.267224 92.005667 824.267224 89.326848 
C 824.267224 86.64803 825.33153 84.078568 827.22574 82.184357 
C 829.119951 80.290146 831.689413 79.22584 834.368232 79.22584 
L 834.368232 79.22584 
z
" clip-path="url(#pdd5fd20ca9)" style="fill: none; opacity: 0.55; stroke-dasharray: 5.2,3.9; stroke-dashoffset: 0; stroke: #3d6b7a; stroke-width: 1.3; stroke-linejoin: miter"/>
   </g>
   <g id="patch_82">
    <path d="M 834.368232 85.223314 
C 835.456502 85.223314 836.500346 85.655688 837.269869 86.425211 
C 838.039392 87.194734 838.471766 88.238578 838.471766 89.326848 
C 838.471766 90.415118 838.039392 91.458962 837.269869 92.228485 
C 836.500346 92.998009 835.456502 93.430383 834.368232 93.430383 
C 833.279962 93.430383 832.236118 92.998009 831.466595 92.228485 
C 830.697071 91.458962 830.264697 90.415118 830.264697 89.326848 
C 830.264697 88.238578 830.697071 87.194734 831.466595 86.425211 
C 832.236118 85.655688 833.279962 85.223314 834.368232 85.223314 
z
" clip-path="url(#pdd5fd20ca9)" style="fill: #3d6b7a; opacity: 0.32"/>
   </g>
   <g id="patch_83">
    <path d="M 834.368232 85.223314 
C 835.456502 85.223314 836.500346 85.655688 837.269869 86.425211 
C 838.039392 87.194734 838.471766 88.238578 838.471766 89.326848 
C 838.471766 90.415118 838.039392 91.458962 837.269869 92.228485 
C 836.500346 92.998009 835.456502 93.430383 834.368232 93.430383 
C 833.279962 93.430383 832.236118 92.998009 831.466595 92.228485 
C 830.697071 91.458962 830.264697 90.415118 830.264697 89.326848 
C 830.264697 88.238578 830.697071 87.194734 831.466595 86.425211 
C 832.236118 85.655688 833.279962 85.223314 834.368232 85.223314 
L 834.368232 85.223314 
z
" clip-path="url(#pdd5fd20ca9)" style="fill: none; opacity: 0.7; stroke: #3d6b7a; stroke-width: 1.8; stroke-linejoin: miter"/>
   </g>
   <g id="line2d_15">
    <path d="M 884.977121 68.248724 
L 881.820556 67.165051 
L 878.663991 66.051208 
L 875.507426 65.00628 
L 872.350861 63.952855 
L 869.194296 62.83265 
L 866.037731 61.850539 
L 862.881166 60.88667 
L 859.724601 59.992025 
L 856.568036 59.089541 
L 853.411471 58.13743 
L 850.254906 57.239883 
L 847.098341 56.362238 
L 843.941776 55.55496 
L 840.785211 54.737608 
L 837.628646 53.887839 
L 834.472081 53.054923 
L 831.315516 52.265184 
L 828.158951 51.554967 
L 825.002386 50.839805 
L 821.845821 50.094372 
L 818.689256 49.633179 
L 815.532691 49.157909 
L 812.376126 48.744364 
L 809.219561 48.36879 
L 806.062996 48.03536 
" clip-path="url(#pdd5fd20ca9)" style="fill: none; stroke: #c0491e; stroke-opacity: 0.15; stroke-width: 1.5; stroke-linecap: round"/>
   </g>
   <g id="text_6">
    <text style="font-size: 11px; font-family: 'DejaVu Sans'; text-anchor: middle; fill: #2b2f33" x="850.082763" y="14.660944" transform="rotate(-0 850.082763 14.660944)">iteration 20</text>
   </g>
   <g id="line2d_16">
    <path d="M 884.977121 68.248724 
L 881.820556 66.98801 
L 878.663991 65.697549 
L 875.507426 64.476437 
L 872.350861 63.247185 
L 869.194296 61.95093 
L 866.037731 60.786347 
L 862.881166 59.641526 
L 859.724601 58.565969 
L 856.568036 57.482979 
L 853.411471 56.351709 
L 850.254906 55.274279 
L 847.098341 54.220192 
L 843.941776 53.236759 
L 840.785211 52.238944 
L 837.628646 51.20717 
L 834.472081 50.198512 
L 831.315516 49.239075 
L 828.158951 48.361589 
L 825.002386 47.474559 
L 821.845821 46.545895 
L 818.689256 45.999028 
L 815.532691 45.44279 
L 812.376126 44.933699 
L 809.219561 44.485294 
L 806.062996 44.182283 
" clip-path="url(#pdd5fd20ca9)" style="fill: none; stroke: #c0491e; stroke-opacity: 0.98; stroke-width: 2.5; stroke-linecap: round"/>
   </g>
   <g id="line2d_17">
    <g clip-path="url(#pdd5fd20ca9)">
     <use xlink:href="#m6d96589588" x="869.194296" y="61.95093" style="fill: #c0491e; stroke: #ffffff; stroke-width: 0.5"/>
     <use xlink:href="#m6d96589588" x="853.411471" y="56.351709" style="fill: #c0491e; stroke: #ffffff; stroke-width: 0.5"/>
     <use xlink:href="#m6d96589588" x="837.628646" y="51.20717" style="fill: #c0491e; stroke: #ffffff; stroke-width: 0.5"/>
     <use xlink:href="#m6d96589588" x="821.845821" y="46.545895" style="fill: #c0491e; stroke: #ffffff; stroke-width: 0.5"/>
     <use xlink:href="#m6d96589588" x="806.062996" y="44.182283" style="fill: #c0491e; stroke: #ffffff; stroke-width: 0.5"/>
    </g>
   </g>
   <g id="patch_84">
    <path d="M 812.376126 44.933699 
Q 809.219561 44.557991 808.83849 44.512634 
" clip-path="url(#pdd5fd20ca9)" style="fill: none; stroke: #c0491e; stroke-width: 2.5; stroke-linecap: round"/>
    <path d="M 813.694749 47.708999 
L 808.83849 44.512634 
L 814.309338 42.545446 
z
" clip-path="url(#pdd5fd20ca9)" style="fill: #c0491e; stroke: #c0491e; stroke-width: 2.5; stroke-linecap: round"/>
   </g>
   <g id="patch_85">
    <path d="M 884.977121 65.344684 
C 885.747281 65.344684 886.486001 65.650672 887.030587 66.195258 
C 887.575173 66.739843 887.881161 67.478564 887.881161 68.248724 
C 887.881161 69.018884 887.575173 69.757604 887.030587 70.30219 
C 886.486001 70.846776 885.747281 71.152764 884.977121 71.152764 
C 884.20696 71.152764 883.46824 70.846776 882.923654 70.30219 
C 882.379069 69.757604 882.073081 69.018884 882.073081 68.248724 
C 882.073081 67.478564 882.379069 66.739843 882.923654 66.195258 
C 883.46824 65.650672 884.20696 65.344684 884.977121 65.344684 
z
" clip-path="url(#pdd5fd20ca9)" style="fill: #c0491e; stroke: #ffffff; stroke-linejoin: miter"/>
   </g>
  </g>
  <g id="axes_7">
   <g id="patch_86">
    <path d="M 933.517089 162.075056 
L 1074.9312 162.075056 
L 1074.9312 20.660944 
L 933.517089 20.660944 
z
" style="fill: #ffffff"/>
   </g>
   <g id="patch_87">
    <path d="M 945.183753 29.499326 
L 1063.264536 29.499326 
Q 1066.092818 29.499326 1066.092818 32.327608 
L 1066.092818 150.408392 
Q 1066.092818 153.236674 1063.264536 153.236674 
L 945.183753 153.236674 
Q 942.355471 153.236674 942.355471 150.408392 
L 942.355471 32.327608 
Q 942.355471 29.499326 945.183753 29.499326 
z
" clip-path="url(#p21de873f5f)" style="fill: #f6f8fa"/>
   </g>
   <g id="patch_88">
    <path d="M 939.830219 26.974074 
L 1068.61807 26.974074 
L 1068.61807 29.499326 
L 939.830219 29.499326 
z
" clip-path="url(#p21de873f5f)" style="fill: #c2cdd5; stroke: #9aa7b1; stroke-width: 0.6"/>
   </g>
   <g id="patch_89">
    <path d="M 939.830219 153.236674 
L 1068.61807 153.236674 
L 1068.61807 155.761926 
L 939.830219 155.761926 
z
" clip-path="url(#p21de873f5f)" style="fill: #c2cdd5; stroke: #9aa7b1; stroke-width: 0.6"/>
   </g>
   <g id="patch_90">
    <path d="M 939.830219 26.974074 
L 942.355471 26.974074 
L 942.355471 155.761926 
L 939.830219 155.761926 
z
" clip-path="url(#p21de873f5f)" style="fill: #c2cdd5; stroke: #9aa7b1; stroke-width: 0.6"/>
   </g>
   <g id="patch_91">
    <path d="M 1066.092818 26.974074 
L 1068.61807 26.974074 
L 1068.61807 155.761926 
L 1066.092818 155.761926 
z
" clip-path="url(#p21de873f5f)" style="fill: #c2cdd5; stroke: #9aa7b1; stroke-width: 0.6"/>
   </g>
   <g id="patch_92">
    <path d="M 1002.645862 26.974074 
L 1005.802427 26.974074 
Q 1007.380709 26.974074 1007.380709 28.552357 
L 1007.380709 41.178617 
Q 1007.380709 42.756899 1005.802427 42.756899 
L 1002.645862 42.756899 
Q 1001.067579 42.756899 1001.067579 41.178617 
L 1001.067579 28.552357 
Q 1001.067579 26.974074 1002.645862 26.974074 
z
" clip-path="url(#p21de873f5f)" style="fill: #c2cdd5; stroke: #9aa7b1; stroke-width: 0.6; stroke-linejoin: miter"/>
   </g>
   <g id="patch_93">
    <path d="M 1002.645862 60.433663 
L 1005.802427 60.433663 
Q 1007.380709 60.433663 1007.380709 62.011946 
L 1007.380709 154.183643 
Q 1007.380709 155.761926 1005.802427 155.761926 
L 1002.645862 155.761926 
Q 1001.067579 155.761926 1001.067579 154.183643 
L 1001.067579 62.011946 
Q 1001.067579 60.433663 1002.645862 60.433663 
z
" clip-path="url(#p21de873f5f)" style="fill: #c2cdd5; stroke: #9aa7b1; stroke-width: 0.6; stroke-linejoin: miter"/>
   </g>
   <g id="matplotlib.axis_13"/>
   <g id="matplotlib.axis_14"/>
   <g id="patch_94">
    <path d="M 988.509613 79.22584 
C 991.188432 79.22584 993.757893 80.290146 995.652104 82.184357 
C 997.546315 84.078568 998.610621 86.64803 998.610621 89.326848 
C 998.610621 92.005667 997.546315 94.575129 995.652104 96.46934 
C 993.757893 98.36355 991.188432 99.427856 988.509613 99.427856 
C 985.830794 99.427856 983.261333 98.36355 981.367122 96.46934 
C 979.472911 94.575129 978.408605 92.005667 978.408605 89.326848 
C 978.408605 86.64803 979.472911 84.078568 981.367122 82.184357 
C 983.261333 80.290146 985.830794 79.22584 988.509613 79.22584 
z
" clip-path="url(#p21de873f5f)" style="fill: #3d6b7a; opacity: 0.16"/>
   </g>
   <g id="patch_95">
    <path d="M 988.509613 79.22584 
C 991.188432 79.22584 993.757893 80.290146 995.652104 82.184357 
C 997.546315 84.078568 998.610621 86.64803 998.610621 89.326848 
C 998.610621 92.005667 997.546315 94.575129 995.652104 96.46934 
C 993.757893 98.36355 991.188432 99.427856 988.509613 99.427856 
C 985.830794 99.427856 983.261333 98.36355 981.367122 96.46934 
C 979.472911 94.575129 978.408605 92.005667 978.408605 89.326848 
C 978.408605 86.64803 979.472911 84.078568 981.367122 82.184357 
C 983.261333 80.290146 985.830794 79.22584 988.509613 79.22584 
L 988.509613 79.22584 
z
" clip-path="url(#p21de873f5f)" style="fill: none; opacity: 0.55; stroke-dasharray: 5.2,3.9; stroke-dashoffset: 0; stroke: #3d6b7a; stroke-width: 1.3; stroke-linejoin: miter"/>
   </g>
   <g id="patch_96">
    <path d="M 988.509613 85.223314 
C 989.597883 85.223314 990.641727 85.655688 991.41125 86.425211 
C 992.180773 87.194734 992.613148 88.238578 992.613148 89.326848 
C 992.613148 90.415118 992.180773 91.458962 991.41125 92.228485 
C 990.641727 92.998009 989.597883 93.430383 988.509613 93.430383 
C 987.421343 93.430383 986.377499 92.998009 985.607976 92.228485 
C 984.838453 91.458962 984.406079 90.415118 984.406079 89.326848 
C 984.406079 88.238578 984.838453 87.194734 985.607976 86.425211 
C 986.377499 85.655688 987.421343 85.223314 988.509613 85.223314 
z
" clip-path="url(#p21de873f5f)" style="fill: #3d6b7a; opacity: 0.32"/>
   </g>
   <g id="patch_97">
    <path d="M 988.509613 85.223314 
C 989.597883 85.223314 990.641727 85.655688 991.41125 86.425211 
C 992.180773 87.194734 992.613148 88.238578 992.613148 89.326848 
C 992.613148 90.415118 992.180773 91.458962 991.41125 92.228485 
C 990.641727 92.998009 989.597883 93.430383 988.509613 93.430383 
C 987.421343 93.430383 986.377499 92.998009 985.607976 92.228485 
C 984.838453 91.458962 984.406079 90.415118 984.406079 89.326848 
C 984.406079 88.238578 984.838453 87.194734 985.607976 86.425211 
C 986.377499 85.655688 987.421343 85.223314 988.509613 85.223314 
L 988.509613 85.223314 
z
" clip-path="url(#p21de873f5f)" style="fill: none; opacity: 0.7; stroke: #3d6b7a; stroke-width: 1.8; stroke-linejoin: miter"/>
   </g>
   <g id="line2d_18">
    <path d="M 1039.118502 68.248724 
L 1035.961937 66.98801 
L 1032.805372 65.697549 
L 1029.648807 64.476437 
L 1026.492242 63.247185 
L 1023.335677 61.95093 
L 1020.179112 60.786347 
L 1017.022547 59.641526 
L 1013.865982 58.565969 
L 1010.709417 57.482979 
L 1007.552852 56.351709 
L 1004.396287 55.274279 
L 1001.239722 54.220192 
L 998.083157 53.236759 
L 994.926592 52.238944 
L 991.770027 51.20717 
L 988.613462 50.198512 
L 985.456897 49.239075 
L 982.300332 48.361589 
L 979.143767 47.474559 
L 975.987202 46.545895 
L 972.830637 45.999028 
L 969.674072 45.44279 
L 966.517507 44.933699 
L 963.360942 44.485294 
L 960.204377 44.182283 
" clip-path="url(#p21de873f5f)" style="fill: none; stroke: #c0491e; stroke-opacity: 0.15; stroke-width: 1.5; stroke-linecap: round"/>
   </g>
   <g id="text_7">
    <text style="font-size: 11px; font-family: 'DejaVu Sans'; text-anchor: middle; fill: #2b2f33" x="1004.224144" y="14.660944" transform="rotate(-0 1004.224144 14.660944)">iteration 30</text>
   </g>
   <g id="line2d_19">
    <path d="M 1039.118502 68.248724 
L 1035.961937 67.565407 
L 1032.805372 66.852367 
L 1029.648807 66.2088 
L 1026.492242 65.559295 
L 1023.335677 64.845042 
L 1020.179112 64.241125 
L 1017.022547 63.661527 
L 1013.865982 63.15175 
L 1012.115557 62.63785 
L 1012.115557 62.066613 
L 1008.958992 61.518198 
L 1005.802427 60.992906 
L 1002.645862 60.520804 
L 999.489297 60.012664 
L 996.332732 59.464391 
L 993.176167 58.953123 
L 990.019602 58.504161 
L 986.863037 58.13644 
L 983.706472 57.745865 
L 980.549907 57.288364 
L 977.393342 57.425775 
L 974.236777 57.568797 
L 971.080212 57.716614 
L 967.923647 57.990449 
L 964.767082 58.657529 
" clip-path="url(#p21de873f5f)" style="fill: none; stroke: #c0491e; stroke-opacity: 0.98; stroke-width: 2.5; stroke-linecap: round"/>
   </g>
   <g id="line2d_20">
    <g clip-path="url(#p21de873f5f)">
     <use xlink:href="#m6d96589588" x="1023.335677" y="64.845042" style="fill: #c0491e; stroke: #ffffff; stroke-width: 0.5"/>
     <use xlink:href="#m6d96589588" x="1012.115557" y="62.066613" style="fill: #c0491e; stroke: #ffffff; stroke-width: 0.5"/>
     <use xlink:href="#m6d96589588" x="996.332732" y="59.464391" style="fill: #c0491e; stroke: #ffffff; stroke-width: 0.5"/>
     <use xlink:href="#m6d96589588" x="980.549907" y="57.288364" style="fill: #c0491e; stroke: #ffffff; stroke-width: 0.5"/>
     <use xlink:href="#m6d96589588" x="964.767082" y="58.657529" style="fill: #c0491e; stroke: #ffffff; stroke-width: 0.5"/>
    </g>
   </g>
   <g id="patch_98">
    <path d="M 971.080212 57.716614 
Q 967.923647 58.187072 967.531631 58.245498 
" clip-path="url(#p21de873f5f)" style="fill: none; stroke: #c0491e; stroke-width: 2.5; stroke-linecap: round"/>
    <path d="M 973.058094 60.050547 
L 967.531631 58.245498 
L 972.291548 54.907357 
z
" clip-path="url(#p21de873f5f)" style="fill: #c0491e; stroke: #c0491e; stroke-width: 2.5; stroke-linecap: round"/>
   </g>
   <g id="patch_99">
    <path d="M 1039.118502 65.344684 
C 1039.888662 65.344684 1040.627383 65.650672 1041.171968 66.195258 
C 1041.716554 66.739843 1042.022542 67.478564 1042.022542 68.248724 
C 1042.022542 69.018884 1041.716554 69.757604 1041.171968 70.30219 
C 1040.627383 70.846776 1039.888662 71.152764 1039.118502 71.152764 
C 1038.348342 71.152764 1037.609622 70.846776 1037.065036 70.30219 
C 1036.52045 69.757604 1036.214462 69.018884 1036.214462 68.248724 
C 1036.214462 67.478564 1036.52045 66.739843 1037.065036 66.195258 
C 1037.609622 65.650672 1038.348342 65.344684 1039.118502 65.344684 
z
" clip-path="url(#p21de873f5f)" style="fill: #c0491e; stroke: #ffffff; stroke-linejoin: miter"/>
   </g>
  </g>
 </g>
 <defs>
  <clipPath id="p17374f29e9">
   <rect x="8.6688" y="20.660944" width="141.414111" height="141.414111"/>
  </clipPath>
  <clipPath id="p7c30f91838">
   <rect x="162.810181" y="20.660944" width="141.414111" height="141.414111"/>
  </clipPath>
  <clipPath id="pb69c6aea38">
   <rect x="316.951563" y="20.660944" width="141.414111" height="141.414111"/>
  </clipPath>
  <clipPath id="p1fc7f7c847">
   <rect x="471.092944" y="20.660944" width="141.414111" height="141.414111"/>
  </clipPath>
  <clipPath id="p5a38d0b30e">
   <rect x="625.234326" y="20.660944" width="141.414111" height="141.414111"/>
  </clipPath>
  <clipPath id="pdd5fd20ca9">
   <rect x="779.375707" y="20.660944" width="141.414111" height="141.414111"/>
  </clipPath>
  <clipPath id="p21de873f5f">
   <rect x="933.517089" y="20.660944" width="141.414111" height="141.414111"/>
  </clipPath>
 </defs>
</svg>
